<?xml version="1.0" standalone="no"?>
<!DOCTYPE svg PUBLIC "-//W3C//DTD SVG 20010904//EN"
 "http://www.w3.org/TR/2001/REC-SVG-20010904/DTD/svg10.dtd">
<svg version="1.0" xmlns="http://www.w3.org/2000/svg"
 width="100.000000pt" height="100.000000pt" viewBox="0 0 100.000000 100.000000"
 preserveAspectRatio="xMidYMid meet">

<g transform="translate(0.000000,100.000000) scale(0.100000,-0.100000)"
fill="#000000" stroke="none">
<path d="M252 764 c-13 -9 -41 -44 -63 -79 -32 -51 -46 -65 -72 -70 -99 -19
-117 -46 -117 -170 0 -97 16 -125 70 -125 22 0 33 -6 39 -22 18 -46 59 -73
111 -73 52 0 93 27 111 72 8 23 12 23 169 23 157 0 161 0 169 -22 18 -46 59
-73 111 -73 52 0 93 27 111 73 6 16 17 22 39 22 52 0 70 29 70 115 0 80 -16
127 -48 144 -9 5 -51 14 -92 21 -108 17 -106 15 -161 88 -28 37 -60 72 -72 79
-15 8 -77 12 -187 13 -135 0 -170 -3 -188 -16z m168 -84 l0 -60 -110 0 -111 0
15 29 c9 16 27 43 42 60 24 29 30 31 95 31 l69 0 0 -60z m184 54 c8 -3 33 -30
56 -60 l41 -54 -121 0 -120 0 0 60 0 60 64 0 c35 0 71 -3 80 -6z m231 -170
c119 -21 127 -28 123 -123 -3 -75 -4 -76 -30 -79 -22 -3 -30 2 -37 20 -18 46
-59 73 -111 73 -52 0 -93 -27 -111 -72 -8 -23 -12 -23 -169 -23 -157 0 -161 0
-169 23 -18 45 -59 72 -111 72 -52 0 -93 -27 -111 -73 -7 -18 -15 -23 -37 -20
-27 3 -27 4 -30 82 -3 93 10 123 60 129 18 2 170 5 338 5 238 2 325 -2 395
-14z m-560 -169 c50 -49 15 -135 -55 -135 -41 0 -80 39 -80 80 0 41 39 80 80
80 19 0 40 -9 55 -25z m560 0 c50 -49 15 -135 -55 -135 -41 0 -80 39 -80 80 0
41 39 80 80 80 19 0 40 -9 55 -25z"/>
</g>
</svg>
